<?xml version="1.0" standalone="no"?><!DOCTYPE svg PUBLIC "-//W3C//DTD SVG 1.1//EN" "http://www.w3.org/Graphics/SVG/1.1/DTD/svg11.dtd"><svg t="1687938534084" class="icon" viewBox="0 0 1024 1024" version="1.1" xmlns="http://www.w3.org/2000/svg" p-id="1386" xmlns:xlink="http://www.w3.org/1999/xlink" width="200" height="200"><path d="M716.8 0H307.2C137.5488 0 0 137.5488 0 307.2v409.6c0 169.6512 137.5488 307.2 307.2 307.2h409.6c169.6512 0 307.2-137.5488 307.2-307.2V307.2c0-169.6512-137.5488-307.2-307.2-307.2z" fill="#E3F0FF" p-id="1387"></path><path d="M358.4 489.8304a25.6 25.6 0 0 1 25.6 0l96.3328 55.6288a25.6 25.6 0 0 1 12.8 22.1696v111.232a25.6 25.6 0 0 1-12.8 22.1696L384 756.6592a25.6 25.6 0 0 1-25.6 0l-96.3328-55.6288a25.6 25.6 0 0 1-12.8-22.1696v-111.232a25.6 25.6 0 0 1 12.8-22.1696L358.4 489.8304z" fill="#0B77FF" p-id="1388"></path><path d="M691.2 489.8304a25.6 25.6 0 0 0-25.6 0l-96.3328 55.6288a25.6 25.6 0 0 0-12.8 22.1696v4.352a25.6 25.6 0 0 1 12.0832-13.5168l85.248-44.288a25.6 25.6 0 0 1 23.6032 0l85.248 44.288a25.6 25.6 0 0 1 13.824 22.7328v84.096a25.6 25.6 0 0 1-13.824 22.7072l-85.248 44.288a25.6 25.6 0 0 1-23.6032 0l-85.248-44.288a25.6 25.6 0 0 1-12.0832-13.4912v4.352a25.6 25.6 0 0 0 12.8 22.1696L665.6 756.6592a25.6 25.6 0 0 0 25.6 0l96.3328-55.6288a25.6 25.6 0 0 0 12.8-22.1696v-111.232a25.6 25.6 0 0 0-12.8-22.1696L691.2 489.8304zM563.2 259.4304a25.6 25.6 0 0 0-25.6 0l-96.3328 55.6288a25.6 25.6 0 0 0-12.8 22.1696v4.352a25.6 25.6 0 0 1 12.0832-13.5168l85.248-44.288a25.6 25.6 0 0 1 23.6032 0l85.248 44.288a25.6 25.6 0 0 1 13.824 22.7328v84.096a25.6 25.6 0 0 1-13.824 22.7072l-85.248 44.288a25.6 25.6 0 0 1-23.6032 0l-85.248-44.288a25.6 25.6 0 0 1-12.0832-13.4912v4.352a25.6 25.6 0 0 0 12.8 22.1696L537.6 526.2592a25.6 25.6 0 0 0 25.6 0l96.3328-55.6288a25.6 25.6 0 0 0 12.8-22.1696v-111.232a25.6 25.6 0 0 0-12.8-22.1696L563.2 259.4304z" fill="#6CB0FF" p-id="1389"></path><path d="M614.4 515.4304a25.6 25.6 0 0 1 25.6 0l74.1632 42.8288a25.6 25.6 0 0 1 12.8 22.1696v85.632a25.6 25.6 0 0 1-12.8 22.1696L640 731.0592a25.6 25.6 0 0 1-25.6 0l-74.1632-42.8288a25.6 25.6 0 0 1-12.8-22.1696v-85.632a25.6 25.6 0 0 1 12.8-22.1696L614.4 515.4304zM486.4 285.0304a25.6 25.6 0 0 1 25.6 0l74.1632 42.8288a25.6 25.6 0 0 1 12.8 22.1696v85.632a25.6 25.6 0 0 1-12.8 22.1696L512 500.6592a25.6 25.6 0 0 1-25.6 0l-74.1632-42.8288a25.6 25.6 0 0 1-12.8-22.1696v-85.632a25.6 25.6 0 0 1 12.8-22.1696L486.4 285.0304z" fill="#0B77FF" p-id="1390"></path><path d="M418.6112 405.632m7.803928 4.5056l47.399995 27.3664q7.803928 4.5056 3.298328 12.309528l-0.0128 0.02217q-4.5056 7.803928-12.309528 3.298328l-47.399995-27.3664q-7.803928-4.5056-3.298328-12.309528l0.0128-0.02217q4.5056-7.803928 12.309528-3.298328Z" fill="#FFFFFF" p-id="1391"></path><path d="M546.6112 636.032m7.803928 4.5056l47.399995 27.3664q7.803928 4.5056 3.298328 12.309528l-0.0128 0.02217q-4.5056 7.803928-12.309528 3.298328l-47.399995-27.3664q-7.803928-4.5056-3.298328-12.309528l0.0128-0.02217q4.5056-7.803928 12.309528-3.298328Z" fill="#FFFFFF" p-id="1392"></path><path d="M486.4 456.832m12.8 0l0 0q12.8 0 12.8 12.8l0 0q0 12.8-12.8 12.8l0 0q-12.8 0-12.8-12.8l0 0q0-12.8 12.8-12.8Z" fill="#FFFFFF" p-id="1393"></path><path d="M614.4 687.232m12.8 0l0 0q12.8 0 12.8 12.8l0 0q0 12.8-12.8 12.8l0 0q-12.8 0-12.8-12.8l0 0q0-12.8 12.8-12.8Z" fill="#FFFFFF" p-id="1394"></path></svg>